<?xml version="1.0" encoding="iso-8859-1"?>
<!-- Generator: Adobe Illustrator 19.0.0, SVG Export Plug-In . SVG Version: 6.00 Build 0)  -->
<svg version="1.1" id="Capa_1" xmlns="http://www.w3.org/2000/svg" xmlns:xlink="http://www.w3.org/1999/xlink" x="0px" y="0px"
	 viewBox="0 0 512 512" style="enable-background:new 0 0 512 512;" xml:space="preserve">
<rect x="37.815" y="219.195" style="fill:#F2A0A5;" width="22.689" height="75.63"/>
<rect x="90.755" y="219.195" style="fill:#EF888F;" width="68.067" height="75.63"/>
<rect x="90.755" y="219.195" style="fill:#F2A0A5;" width="24.58" height="75.63"/>
<polygon style="fill:#E53844;" points="189.074,293.815 356.534,293.815 287.392,362.956 340.87,416.434 447.827,309.478 
	501.305,256 340.87,95.565 287.392,149.044 356.534,218.185 189.074,218.185 "/>
<rect x="189.074" y="218.186" style="fill:#EA6069;" width="109.663" height="75.63"/>
<rect x="189.074" y="218.186" style="fill:#EF888F;" width="49.159" height="75.63"/>
<path d="M340.87,427.131l-64.174-64.174l61.579-61.579H181.511v-90.755h156.764l-61.579-61.579l64.174-64.174L512,256
	L340.87,427.131z M298.087,362.956l42.783,42.783l149.738-149.738L340.87,106.262l-42.783,42.783l76.705,76.704H196.637v60.504
	h178.155L298.087,362.956z"/>
<path d="M166.385,302.386H83.193v-90.755h83.193V302.386z M98.318,287.26h52.941v-60.504H98.318V287.26z"/>
<path d="M68.067,302.386H30.252v-90.755h37.815V302.386z M45.378,287.26h7.563v-60.504h-7.563V287.26z"/>
<rect y="211.632" width="15.126" height="90.755"/>
<g>
	<rect x="211.763" y="249.446" style="fill:#FFFFFF;" width="58.608" height="15.126"/>
	<rect x="285.497" y="249.446" style="fill:#FFFFFF;" width="30.252" height="15.126"/>
	<rect x="330.874" y="249.446" style="fill:#FFFFFF;" width="15.126" height="15.126"/>
</g>
<g>
</g>
<g>
</g>
<g>
</g>
<g>
</g>
<g>
</g>
<g>
</g>
<g>
</g>
<g>
</g>
<g>
</g>
<g>
</g>
<g>
</g>
<g>
</g>
<g>
</g>
<g>
</g>
<g>
</g>
</svg>
